<svg width="210" height="157" viewBox="0 0 210 157" fill="none" xmlns="http://www.w3.org/2000/svg">
<g clip-path="url(#clip0_151_5362)">
<path d="M122.016 89.7117C119.865 90.2768 117.063 90.5563 114.626 90.5563C108.373 90.5563 104.231 87.2542 104.231 81.2105C104.231 75.4905 108.088 71.7853 113.734 71.7853C114.992 71.7853 116.331 71.9442 117.144 72.3486V64.0455H122.016V89.7117ZM117.144 76.6182C116.372 76.2558 115.357 76.0543 114.137 76.0543C111.175 76.0543 109.185 77.868 109.185 81.0501C109.185 84.4752 111.336 86.4097 114.788 86.4097C115.398 86.4097 116.331 86.3682 117.144 86.2081V76.6182ZM162 89.7117C159.847 90.2768 157.045 90.5563 154.609 90.5563C148.356 90.5563 144.212 87.2542 144.212 81.2105C144.212 75.4905 148.071 71.7853 153.716 71.7853C154.975 71.7853 156.315 71.9442 157.127 72.3486V64.0455H162V89.7117H162ZM157.127 76.6182C156.355 76.2558 155.339 76.0543 154.122 76.0543C151.158 76.0543 149.168 77.868 149.168 81.0501C149.168 84.4752 151.32 86.4097 154.772 86.4097C155.38 86.4097 156.315 86.3682 157.127 86.2081V76.6182ZM129.679 76.5786C130.491 76.2556 131.626 76.1358 132.6 76.1358C135.606 76.1358 137.677 77.8677 137.677 80.9688C137.677 84.6269 135.383 86.2813 132.316 86.324V90.5538C132.396 90.5538 132.478 90.5566 132.561 90.5566C138.854 90.5566 142.631 87.0529 142.631 80.8084C142.631 75.1278 138.612 71.7853 132.683 71.7853C129.679 71.7853 126.713 72.4703 124.765 73.2752V97.4088H129.679V76.5786Z" fill="black"/>
<path d="M77.786 75.3935C77.5844 75.5101 77.2683 75.501 77.0716 75.3802L75.9132 74.6971C75.819 74.6391 75.7324 74.5463 75.6671 74.4348C75.6632 74.4284 75.6594 74.4218 75.6555 74.4152C75.5815 74.2955 75.5395 74.1692 75.5351 74.0533L75.5057 72.7133C75.497 72.4876 75.6471 72.2123 75.8494 72.0952L89.775 64.0458L70.2336 53.4784C70.0184 53.36 69.7346 53.3028 69.4505 53.3023C69.1661 53.3018 68.8818 53.3605 68.6664 53.4784L49.1246 64.0461L71.0164 76.6907C71.2193 76.8008 71.3735 77.062 71.3735 77.2979V95.7441C71.3735 95.9756 71.2065 96.2417 71.0021 96.35L69.824 96.9992C69.7261 97.0508 69.6016 97.0785 69.4715 97.0785C69.464 97.0785 69.4564 97.0785 69.4489 97.0785C69.3075 97.0818 69.1761 97.0541 69.0731 96.9992L67.8912 96.3498C67.6904 96.2438 67.5262 95.9764 67.5262 95.7441L67.5264 79.3002C67.5159 79.1797 67.427 79.0328 67.3297 78.9774L48.0426 67.8377V89.6571C48.0423 90.1454 48.3894 90.7477 48.8147 90.9945L68.6784 102.618C68.8908 102.741 69.1705 102.803 69.45 102.802C69.7297 102.801 70.0094 102.743 70.2213 102.618L90.0881 90.9945C90.5118 90.7452 90.8578 90.1461 90.8573 89.6571V67.8379L77.786 75.3935Z" fill="black"/>
</g>
<defs>
<clipPath id="clip0_151_5362">
<rect width="115" height="52.3577" fill="white" transform="translate(47 52)"/>
</clipPath>
</defs>
</svg>
