<svg width="571" height="322" viewBox="0 0 571 322" fill="none" xmlns="http://www.w3.org/2000/svg">
<path d="M503.531 281.064C498.264 282.915 496.309 276.827 498.658 285.488C499.578 289.417 507.478 284.238 503.531 281.064Z" fill="#00AEE4"/>
<path d="M510.639 250.015C508.713 247.851 507.445 247.212 507.008 244.797H505.533C503.005 240.612 499.576 234.278 496.455 229.616C493.643 216.988 492.876 229.106 492.583 233.159C492.395 239.615 479.893 232.534 485.449 225.94C475.743 224.716 476.435 228.723 472.973 231.079C466.444 226.073 462.187 240.099 457.837 240.72C442.821 240.393 449.836 266.428 454.182 269.442C465.742 266.978 477.924 255.737 483.745 269.346C489.183 257.202 485.221 275.224 495.887 276.581C497.137 274.811 499.224 275.084 500.086 277.055C507.551 276.797 514.509 254.882 510.639 250.015Z" fill="#00AEE4"/>
<path d="M502.15 216.469C500.944 211.526 484.301 202.651 482.983 212.272C484.839 213.636 487.928 213.708 488.098 217.281C490.072 218.406 492.829 222.791 496.421 220.204C493.836 213.49 503.313 222.741 507.386 223.39C508.262 220.451 500.402 220.37 502.15 216.469Z" fill="#00AEE4"/>
<path d="M476.538 206.308C477.409 207.471 478.337 209.444 481.704 208.965C481.755 207.854 477.022 202.693 476.538 206.308Z" fill="#00AEE4"/>
<path d="M456.528 209.846C457.603 212.403 458.311 219.585 459.333 209.912C463.296 215.329 461.565 210.941 463.025 206.354C460.155 207.411 460.185 206.495 457.763 205.606C457.734 206.835 457.93 208.12 456.528 209.846Z" fill="#00AEE4"/>
<path d="M458.681 203.716C457.475 204.417 464.819 204.19 466.339 203.133C465.702 202.604 460.602 201.966 458.681 203.716Z" fill="#00AEE4"/>
<path d="M441.034 201.788C440.058 204.35 442.961 206.107 443.392 209.557C447.941 210.361 453.621 213.87 455.178 202.84C455.58 202.827 455.983 202.814 456.385 202.8C453.327 198.063 455.369 199.744 456.754 194.75C453.86 192.928 453.606 190.482 451.847 195.163C448.424 196.725 444.284 203.245 441.034 201.788Z" fill="#00AEE4"/>
<path d="M449.724 219.652C450.191 219.459 449.573 220.495 451.648 219.942C442.631 212.732 422.348 216.22 449.724 219.652Z" fill="#00AEE4"/>
<path d="M436.001 209.75C435.456 210.605 422.318 191.842 419.209 195.929C422.189 197.294 436.306 224.465 436.001 209.75Z" fill="#00AEE4"/>
<path d="M424.991 190.692C428.678 193.353 428.165 200.714 433.682 202.121C434.429 199.155 420.933 180.18 424.991 190.692Z" fill="#00AEE4"/>
<path d="M469.385 191.88C469.563 184.285 461.101 191.098 467.815 194.926C467.298 193.835 467.238 192.518 467.654 191.381C468.047 191.912 468.788 192.126 469.385 191.88Z" fill="#00AEE4"/>
<path d="M462.473 191.545C462.974 191.042 463.569 190.642 464.215 190.373C464.816 188.254 461.913 189.926 462.473 191.545Z" fill="#00AEE4"/>
<path d="M465.833 182.216L465.799 182.594C462.186 183.783 470.307 189.899 465.833 182.216Z" fill="#00AEE4"/>
<path d="M566.885 63.7779C565.675 63.7779 564.011 62.6711 564.011 62.6711L563.86 65.0433C554.77 55.264 533.643 49.5679 540.408 57.7689C539.167 58.1284 535.614 57.1155 534.658 55.5553C513.357 56.8164 531.43 50.1945 509.245 51.2401C502.957 45.6958 506.123 47.8654 498.187 48.4886C500.908 43.9614 488.435 44.745 490.025 49.7041L488.209 49.23C486.613 50.2351 483.564 49.0343 481.552 50.3368C477.293 46.3492 478.417 52.5814 474.091 50.2566C472.113 45.463 467.939 38.355 464.001 44.0114C453.582 44.9286 446.462 38.8454 435.859 44.4855C446.281 38.7265 457.409 30.0324 436.615 32.1512L438.28 31.0202C438.43 29.8548 434.693 29.3247 433.74 29.6212C436.992 24.2639 426.432 32.9175 417.878 34.5398C411.211 35.244 406.92 34.2958 405.62 40.8022C383.368 43.4296 404.483 46.6483 397.277 48.5964L393.04 46.6991C391.964 46.9224 389.879 47.7559 388.653 48.4386L391.074 50.1782L387.896 50.3359C385.633 48.2481 390.18 45.8501 386.08 44.4855V47.0155C380.002 51.3703 394.424 69.7275 377.001 64.7261C383.365 63.1582 385.368 60.8032 382.619 56.3113C382.68 54.2201 383.794 50.7247 381.995 49.5455C385.363 38.623 368.874 47.1715 376.536 59.5446C370.218 58.4585 365.791 49.5006 362.162 59.099C359.297 56.0294 350.755 62.0884 353.248 57.65C350.031 58.0137 347.119 60.6402 343.83 61.6824C344.381 65.7985 335.63 62.1625 341.106 61.0894C342.386 59.2171 338.298 58.2439 337.361 58.362C337.653 59.6877 336.733 62.1996 338.042 63.8176C337.906 65.2347 336.81 66.0588 335.432 64.8847C325.002 67.3458 337.36 72.2729 326.467 69.3913V70.6955C329.583 72.947 324.373 72.0988 322.988 70.9937C322.103 68.5551 321.733 64.7951 318.523 62.6306C343.113 71.7626 331.041 55.2028 314.325 54.683C313.351 42.496 283.262 64.7373 284.367 72.2367C282.35 75.2606 270.7 75.4451 276.992 83.0298C274.76 90.7809 279.463 87.8596 283.913 84.3323C286.626 85.3495 287.183 101.309 291.176 91.449C294.558 91.8335 293.627 85.9753 297.19 82.91L294.694 81.3679C298.083 70.361 310.658 55.2114 301.808 81.5765C304.841 83.5186 314.228 78.4974 312.624 84.0961C310.826 84.3996 307.215 84.7056 305.248 84.6892L304.907 86.9425L306.268 88.6027L305.134 90.4999C301.296 86.0115 299.88 90.5292 300.916 93.4652C300.199 94.4212 298.966 96.5607 297.644 97.2606C296.43 94.9013 292.395 97.6407 291.403 97.9726C288.468 96.6994 287.713 97.3391 284.802 97.7968C280.883 95.4039 285.941 87.5114 280.509 92.517C283.507 98.0916 269.346 107.506 264.395 109.002C264.904 111.177 263.262 111.134 259.97 111.225C260.334 112.602 262.154 113.601 263.601 114.101C271.96 131.405 246.579 110.652 253.275 133.908C252.216 135.431 254.642 135.893 255.884 135.449L257.132 137.346C258.263 136.982 262.625 135.518 264.281 136.042C265.016 135.171 266.824 133.084 267.459 132.247C264.699 129.372 270.117 127.301 271.998 125.922C270.507 122.315 274.223 122.073 276.991 123.234C281.077 117.306 293.406 130.042 292.272 133.67L294.239 131.614C294.129 130.27 294.021 128.765 295.903 129.874V129.084C274.226 108.962 297.352 119.73 302.748 136.854C304.629 132.51 302.434 125.97 309.974 127.681C308.717 144.023 322.444 132.634 324.186 138.929C321.719 157.934 303.026 141.502 299.827 144.766C297.077 154.493 289.632 143.645 283.477 141.111C287.152 127.842 262.717 142.443 258.382 138.729C256.693 140.723 252.855 143.759 251.422 145.687C253.045 152.537 242.489 156.675 239.97 163.659C237.788 177.302 243.803 198.392 258.986 194.893C264.04 199.517 270.255 191.169 275.478 194.78C288.914 201.345 276.634 203.646 287.872 218.03C285.863 246.176 289.803 244.723 295.99 266.534C305.553 273.148 318.635 261.583 320.112 250.843C327.849 247.571 320.871 243.333 323.755 239.409C333.503 230.912 331.757 232.724 331.763 223.013C319.843 211.281 365.251 180.731 342.322 185.788C328.578 183.047 320.968 155.841 321.485 153.614C325.153 150.774 330.108 167.243 330.33 166.802C334.494 172.356 335.343 174.823 336.363 181.086C344.251 182.718 360.753 171.597 361.721 163.873C354.038 156.863 358.591 156.422 350.979 161.817C342.288 153.239 340.5 142.878 353.036 156.103C355.947 156.157 357.182 152.648 358.392 157.706C361.645 158.781 369.049 159.663 373.371 158.655C373.654 159.905 375.897 162.523 377.305 163.398C378.552 170.43 382.292 165.299 383.26 165.208C383.724 176.327 389.312 192.093 391.677 190.384C392.921 186.46 395.994 183.124 394.462 178.688C397.25 172.665 404.268 170.629 407.262 165.454C408.405 165.24 410.86 164.807 412.103 164.189V162.924C414.545 166.202 418.629 170.783 417.852 175.575L419.171 176.208C420.168 175.766 421.803 174.885 422.7 173.836C423.127 177.805 425.955 182.383 425.266 186.583L426.779 184.367C424.436 174.233 433.588 186.994 434.799 189.064C435.456 188.533 436.567 187.816 436.917 186.583C451.81 180.273 425.252 167.346 441.758 165.928L442.514 167.668C453.977 162.661 468.026 153.295 457.493 140.154C457.912 137.353 461.422 136.203 463.059 135.568C460.458 133.332 457.409 137.4 456.966 133.987C451.228 133.348 465.858 123.235 461.2 130.904L462.259 131.141C462.889 130.539 466.017 128.963 467.025 130.824C466.38 132.794 466.616 134.64 469.37 134.303C466.962 143.491 474.022 140.641 473.645 137.852C473.893 132.725 468.358 132.224 473.745 127.956C497.012 112.99 494.489 93.3937 487.829 99.1984L485.559 98.882L485.181 96.9054L483.138 96.2728C501.765 77.0898 493.775 89.7974 506.968 83.7013C508.111 84.3022 509.896 85.1064 511.052 86.2313L513.625 84.8081L514.381 82.2782C516.526 80.299 523.065 73.9245 522.401 81.3291L526.485 79.4319C528.437 72.9013 529.024 77.3165 528.842 80.6973C525.565 81.4076 522 85.028 520.585 87.8131C513.668 88.5613 516.209 101.28 516.802 105.05C521.429 101.974 524.438 96.0409 527.394 91.1335C522.823 86.046 534.13 77.9483 538.741 83.385C553.147 70.3153 554.548 80.7947 551.905 72.1574C542.528 67.2044 555.872 72.4445 554.628 66.307C556.429 64.6184 556.849 65.9269 557.654 67.5725C560.399 66.7432 566.254 74.2116 566.459 67.4138C567.077 68.4793 569.57 66.9906 570.514 66.307C570.517 66.3079 568.095 63.7779 566.885 63.7779Z" fill="#00AEE4"/>
<path d="M259.177 96.4315H260.879C261.683 97.209 262.365 98.0141 262.354 99.6338L260.765 100.227C260.468 101.132 259.824 102.6 259.177 103.666L261.333 104.022L261.787 104.615C260.583 104.819 259.372 105.832 258.609 107.225C261.699 105.526 265.992 106.581 268.935 105.327L268.141 104.26L269.729 102.007L267.686 100.347C267.63 98.6744 266.297 96.3772 264.509 95.6031L263.942 93.9429L262.693 93.1128C262.949 92.0422 263.276 90.9328 264.395 89.9104C263.768 89.3769 262.338 88.8416 261.104 88.4873L262.012 86.4711L260.31 85.9961L258.154 88.9614C258.144 91.7879 257.837 90.8664 259.629 94.298L259.177 96.4315Z" fill="#00AEE4"/>
<path d="M256.114 102.361C257.71 100.935 256.566 98.3247 258.156 96.6094L256.114 95.3638L254.185 96.0758L253.958 97.2024L251.575 97.736V98.9221L252.478 100.108C251.882 101.037 251.391 101.987 251.575 103.548C252.782 103.811 254.866 103.261 256.114 102.361Z" fill="#00AEE4"/>
<path d="M244.652 68.2054C244.353 67.2409 242.567 65.8177 241.475 65.1221C239.238 66.3806 235.599 66.1004 233.192 67.3753C232.798 66.6202 232.346 65.466 231.149 65.1221L231.376 66.4263C226.991 64.4601 236.443 80.6381 244.652 68.2054Z" fill="#00AEE4"/>
<path d="M444.29 169.337C443.839 168.074 441.06 169.084 440.221 170.603C440.88 173.799 443.002 171.098 444.29 169.337Z" fill="#00AEE4"/>
<path d="M459.786 164.53C460.469 163.862 462.383 160.353 461.28 158.959C459.301 159.752 458.117 161.93 459.786 164.53Z" fill="#00AEE4"/>
<path d="M473.916 144.008L473.717 143.723C476.707 152.843 480.259 139.455 473.916 144.008Z" fill="#00AEE4"/>
<path d="M485.994 136.34C485.297 139.736 477.607 138.293 476.705 141.984C479.31 142.17 480.073 140.386 483.516 140.828C483.437 141.427 483.357 142.027 483.278 142.627C484.997 141.072 487.382 140.38 490.88 139.745C490.57 135.994 497.006 130.236 491.236 127.299C491.356 131.025 489.21 134.726 485.994 136.34Z" fill="#00AEE4"/>
<path d="M491.714 122.801C488.654 127.052 497.409 125.172 498.825 122.318C493.943 122.324 496.239 115.609 491.714 122.801Z" fill="#00AEE4"/>
<path d="M493.664 115.369C496.283 116.012 493.047 111.969 497.58 109.033C493.528 91.9881 493.965 105.028 493.664 115.369Z" fill="#00AEE4"/>
<path d="M350.585 48.5552C356.568 51.8645 357.177 55.6521 356.491 44.1832C356.067 41.3955 347.426 47.1476 350.585 48.5552Z" fill="#00AEE4"/>
<path d="M358.204 42.8547C358.287 35.7148 377.744 35.2208 376.431 29.9902C373.402 30.3049 344.841 39.5274 358.204 42.8547Z" fill="#00AEE4"/>
<path d="M286.578 23.9115C286.881 24.9433 289.143 27.9198 289.721 24.464C290.373 24.2279 291.079 24.1589 291.762 24.2649C292.714 26.4397 285.21 27.5259 293.576 31.1833C295.056 30.2808 298.461 20.4006 300.784 26.2087C299.301 31.2928 315.154 28.5422 292.641 18.936C292.943 20.0592 293.247 21.1824 293.55 22.3056C292.552 23.0254 290.598 16.8715 290.156 21.0453C287.319 18.8197 280.742 18.786 286.578 23.9115Z" fill="#00AEE4"/>
<path d="M299.224 19.2464C299.574 19.6119 299.434 18.224 301.16 19.7972C300.589 19.7705 300.013 19.8644 299.476 20.073C307.177 24.3632 317.014 13.8735 301.972 18.3637C300.498 15.632 293.027 19.4291 299.224 19.2464Z" fill="#00AEE4"/>
<path d="M346.281 227.166C345.159 224.157 342.809 233.653 337.877 234.928C340.383 239.132 330.314 253.758 342.093 249.833C343.178 244.789 345.571 239.251 346.638 232.948C348.312 232.346 347.908 230.736 346.281 227.166Z" fill="#00AEE4"/>
<path d="M397.046 190.006C395.251 183.279 392.853 193.578 396.287 194.049C397.504 193.814 398.796 191.726 397.046 190.006Z" fill="#00AEE4"/>
<path d="M208.454 213.764C205.354 210.021 200.776 208.08 196.123 209.257C194.662 205.614 189.634 205.857 186.289 204.988L186.062 207.438L185.078 207.122C185.423 205.093 187.978 192.963 175.547 193.761C174.327 192.078 171.713 189.263 169.419 189.064L168.512 186.802C166.67 185.689 160.644 185.645 158.072 185.853C157.472 185.049 156.259 184.048 155.007 183.718L153.191 185.259V187.749L151.829 186.445C153.789 179.363 150.425 185.735 146.496 185.259C146.155 185.902 144.379 189.313 143.66 190.359C143.653 189.897 141.753 187.924 141.277 187.393C138.097 189.645 135.178 187.649 133.334 185.258C133.503 184.188 133.128 179.962 133.788 178.617L132.085 176.482C130.513 176.253 127.175 175.582 125.504 176.482C128.346 164.792 129.814 165.645 123.235 165.808C114.001 187.175 100.156 145.604 123.802 150.746L123.235 149.797C124.633 149.104 127.879 148.983 129.589 149.085C130.524 151.02 131.861 150.443 133.107 149.085C140.046 165.268 137.043 155.268 138.211 144.935C150.592 136.709 141.436 134.425 145.11 132.007L146.27 134.261C146.643 132.695 148.939 129.727 149.448 127.619C152.35 128.252 155.043 126.193 154.214 122.875C156.218 120.651 160.459 119.105 163.518 117.895C162.709 118.522 161.626 119.803 161.136 121.097L162.611 122.401L164.313 120.266C165.537 120.163 167.821 119.337 169.192 118.606V116.946C167.894 117.087 166.088 116.864 164.653 116.116L163.405 113.388L164.426 110.423L162.27 109.237C159.06 109.922 156.173 112.609 153.987 115.048C152.853 111.549 158.318 108.914 160.001 107.221C179.32 106.628 182.87 102.57 167.489 91.3305C164.78 79.509 163.247 83.7664 160.001 87.2963C154.812 85.88 156.501 84.7232 155.711 80.7891C149.02 75.1998 145.584 77.7307 142.98 76.7411C142.636 79.3521 143.424 83.7371 141.505 86.4662L144.682 89.0755V92.9889C143.77 93.8277 141.274 96.2507 140.377 96.9024L141.391 102.832C139.686 107.164 136.954 101.196 135.377 99.7487L135.603 95.4792C127.517 94.5198 121.486 91.1115 115.972 85.8731C113.831 74.4215 130.606 71.4088 128.794 65.1188C132.585 64.5921 135.157 65.9954 137.079 61.6794C136.3 61.0898 135.513 59.9037 135.377 58.596C136.239 51.8129 130.541 55.2385 128.228 62.0354C122.679 51.1518 123.329 63.162 121.646 56.4608C117.483 55.6911 115.767 60.751 110.072 61.2044C99.9848 62.9517 98.3725 56.054 95.0935 61.0855L96.001 63.3387L95.4334 64.1688C91.629 59.183 86.3771 62.1621 83.0644 61.0855V59.5433L84.6535 58.5943C79.1902 57.397 70.9837 53.3447 68.5397 56.1039C68.3336 55.4704 67.9824 54.6334 67.2915 53.7317L66.2701 55.629C62.4001 50.2613 55.8025 56.1281 50.5618 57.5711C37.6959 52.5146 25.8912 53.6162 17.8158 49.8174C0.109559 55.8626 9.57473 58.6382 2.38268 57.2892L1.36129 58.3564C2.89511 60.2674 6.3475 63.9033 8.62408 62.9819L11.3475 64.5154C8.42912 68.4633 1.39148 61.6113 0 67.8444C0.621983 68.3211 1.85042 69.4839 2.72344 70.4537C9.2521 70.6519 10.8282 67.4444 10.2131 73.537C8.74485 74.5637 4.46516 72.8604 4.08559 75.7903C3.61457 75.6076 1.97551 78.4565 2.15667 79.2297C2.84335 79.1676 4.36941 80.0236 3.7457 81.483C5.02158 83.9138 6.68049 82.426 7.71742 81.483C8.20137 88.0488 11.8436 85.8912 15.8877 85.6335L16.0016 87.6497C13.3575 92.0675 8.07715 92.8665 5.78849 96.1887C22.9262 89.8047 19.8758 83.1811 25.6471 79.2297H27.8029C26.1949 79.6874 25.2804 82.0338 24.5118 83.7362C25.3624 86.4145 28.4335 83.0294 29.9587 81.839V80.0598C42.5364 82.4786 61.4296 90.9779 63.0566 106.23C73.2628 114.148 67.4062 122.581 69.1186 129.938C72.238 139.209 81.3296 144.242 84.6923 153.827C80.3186 154.223 88.9056 156.703 87.7944 159.441C88.6114 160.448 90.4247 162.113 91.8041 162.761L91.9551 161.733C89.1143 157.056 81.9766 147.622 84.2403 146.473C96.2969 158.26 100.499 178.3 117.499 176.318C121.374 182.757 129.076 179.653 130.158 186.955C133.669 189.671 137.201 192.131 141.733 190.947C146.916 196.753 138.61 203.274 137.988 208.856L139.69 208.974C138.888 210.579 136.584 212.879 137.193 215.26C141.388 218.694 143.446 226.004 145.477 231.034C166.338 238.393 145.207 279.477 148.654 286.3C149.119 285.638 149.768 284.607 150.129 283.217C150.931 285.79 149.639 289.865 149.108 292.586L146.725 293.298L146.106 294.602H148.087L148.541 296.144C143.409 304.478 154.38 316.301 162.612 313.618C158.741 311.619 156.38 307.581 156.257 303.656C157.831 301.529 158.944 298.403 161.401 296.698V295.117C158.242 295.421 162.926 279.195 166.999 281.693L167.605 277.564C169.618 277.095 177.585 276.271 175.472 272.188L175.876 270.132L173.808 268.392C181.911 273.153 190.442 254.782 189.543 250.979C191.018 248.229 195.155 248.228 196.654 245.622H199.227C207.091 238.245 203.213 230.463 204.522 228.544C206.98 225.084 216.066 216.785 208.454 213.764ZM111.614 171.392L113.3 172.349C112.977 172.294 112.232 171.932 111.614 171.392ZM176.675 220.62L176.672 220.595L176.68 220.603L176.675 220.62Z" fill="#00AEE4"/>
<path d="M176.188 105.931C174.663 107.806 173.406 109.267 172.294 112.898C175.18 111.903 184.811 115.844 181.76 111.386C182.598 108.457 175.992 110.628 177.912 104.714C177.192 104.696 176.636 105.341 176.188 105.931Z" fill="#00AEE4"/>
<path d="M66.9196 47.8034C67.7668 47.6715 70.7809 52.3298 71.6402 49.2834C96.5358 39.3515 66.0596 33.8355 66.9196 47.8034Z" fill="#00AEE4"/>
<path d="M79.7259 49.4027C76.8972 53.5016 84.0246 50.0803 87.6901 53.4938C65.5126 53.6576 98.8633 59.7459 102.628 55.7609C107.185 55.2057 97.9981 44.4359 94.8649 43.498C94.9598 44.3945 98.5105 52.5094 92.49 45.0583C87.9834 48.202 89.2834 43.686 84.9753 45.4238C84.7691 44.9453 84.6958 44.4049 84.7682 43.8851C82.0707 43.3791 70.2668 48.7907 79.7259 49.4027Z" fill="#00AEE4"/>
<path d="M126.507 50.9001C119.242 53.5231 138.789 53.5524 141.769 53.3999C144.259 56.0583 150.327 57.8314 151.47 61.8931C149.84 63.8137 147.688 64.6274 149.534 67.697C145.855 67.9021 137.377 71.0476 149.107 70.3295C151.789 73.3129 167.571 83.4957 158.801 73.4465C170.439 76.4696 158.296 68.7167 160.155 65.3515C166.863 71.9622 172.105 64.9145 157.958 57.4892C165.889 57.3082 141.018 39.3665 138.473 42.1318C138.538 44.8005 146.814 49.2226 137.469 47.059C137.804 41.8835 131.121 38.2881 131.487 50.8483C129.146 49.17 127.852 44.7514 130.714 41.7258C126.778 39.8415 119.556 49.4734 126.507 50.9001Z" fill="#00AEE4"/>
<path d="M156.761 21.2686C159.601 29.5834 174.136 28.8714 176.632 29.3248L182.366 35.9355C184.893 50.8697 185.529 72.2559 202.605 77.3063C203.11 59.6569 224.135 57.5726 234.378 47.457C233.293 37.475 241.545 27.0871 239.337 16.4733C242.691 15.0303 248.814 11.3961 251.534 8.33685C247.036 5.65603 240.557 5.06729 235.285 5.49053L227.569 0.27198C173.092 -2.24161 172.608 13.4485 159.03 15.2311L156.761 21.2686Z" fill="#00AEE4"/>
<path d="M152.393 73.3594C146.336 73.3594 141.426 78.2659 141.426 84.3171C141.426 85.7299 141.696 87.0781 142.184 88.3177L152.393 105.684L162.601 88.3177C163.089 87.0781 163.359 85.7291 163.359 84.3171C163.36 78.265 158.449 73.3594 152.393 73.3594ZM152.393 91.8432C147.926 91.8432 144.305 88.2254 144.305 83.762C144.305 79.2985 147.926 75.6807 152.393 75.6807C156.86 75.6807 160.48 79.2985 160.48 83.762C160.48 88.2246 156.86 91.8432 152.393 91.8432Z" fill="#C44949"/>
<path d="M258.635 115.555C252.578 115.555 247.669 120.461 247.669 126.513C247.669 127.926 247.939 129.274 248.426 130.513L258.635 147.879L268.844 130.513C269.331 129.274 269.601 127.925 269.601 126.513C269.601 120.461 264.692 115.555 258.635 115.555ZM258.635 134.039C254.169 134.039 250.548 130.421 250.548 125.958C250.548 121.494 254.168 117.877 258.635 117.877C263.102 117.877 266.723 121.494 266.723 125.958C266.723 130.421 263.102 134.039 258.635 134.039Z" fill="#C44949"/>
<path d="M190.322 181.606C184.265 181.606 179.355 186.512 179.355 192.564C179.355 193.977 179.625 195.325 180.113 196.565L190.322 213.931L200.53 196.565C201.018 195.325 201.288 193.976 201.288 192.564C201.289 186.513 196.378 181.606 190.322 181.606ZM190.322 200.09C185.855 200.09 182.234 196.472 182.234 192.009C182.234 187.546 185.855 183.928 190.322 183.928C194.788 183.928 198.409 187.546 198.409 192.009C198.409 196.472 194.788 200.09 190.322 200.09Z" fill="#C44949"/>
<path d="M294.117 33.8316C294.117 42.8791 290.13 50.9983 283.81 56.5306C278.496 61.1777 271.536 63.9947 263.93 63.9947C247.262 63.9947 233.745 50.488 233.745 33.8316C233.745 33.3807 233.753 32.929 233.779 32.4868C234.41 18.1285 245.073 6.39238 258.931 4.08567C260.558 3.81327 262.227 3.66846 263.931 3.66846C272.287 3.66846 279.842 7.05612 285.31 12.5367C286.247 13.4815 287.124 14.4857 287.933 15.5408C291.808 20.6137 294.117 26.9545 294.117 33.8316Z" fill="#896CB7"/>
<path d="M263.93 3.66846V33.8307L233.778 32.486C234.409 18.1276 245.072 6.39152 258.93 4.0848C260.557 3.81327 262.226 3.66846 263.93 3.66846Z" fill="#C44949"/>
<path d="M294.117 33.8316C294.117 42.8791 290.13 50.9983 283.81 56.5306L263.93 33.8316L285.309 12.5376C286.246 13.4823 287.123 14.4866 287.932 15.5417C291.808 20.6137 294.117 26.9545 294.117 33.8316Z" fill="#5372BC"/>
<path d="M287.932 15.5416L263.93 33.8316L258.93 4.08567C260.557 3.81327 262.226 3.66846 263.93 3.66846C272.286 3.66846 279.841 7.05612 285.309 12.5367C286.247 13.4815 287.123 14.4857 287.932 15.5416Z" fill="#E8B158"/>
<path d="M377.38 57.1684C375.414 55.9875 373.61 54.9315 371.249 53.5739C370.766 53.2954 366.254 51.1818 364.598 52.7145C363.509 53.7221 365.274 55.6263 366.344 56.6547C367.148 57.4262 368.104 58.008 369.091 58.5355C368.221 58.3718 367.221 58.7485 366.846 59.5682C366.489 60.3501 366.804 61.306 367.435 61.8689C366.514 61.7465 365.505 62.1318 365.035 62.9455C364.532 63.8162 364.754 64.9816 365.419 65.7151C365.039 65.6815 364.628 65.81 364.374 66.0996C363.866 66.678 363.927 67.5935 364.314 68.2589C364.7 68.9244 365.344 69.3942 365.974 69.8346C368.537 71.6259 371.204 73.2689 373.956 74.7524C374.84 75.229 375.834 75.7031 376.81 75.4644C377.463 75.3049 377.995 74.8472 378.501 74.4041C381.888 71.4371 385.274 68.4701 388.661 65.5031C385.25 62.3801 381.346 59.5493 377.38 57.1684Z" fill="#FFF1DB"/>
<path d="M525.009 290.597L530.337 311.35L499.274 321.275C499.274 321.275 497.829 314.779 501.893 310.989C505.957 307.199 508.666 303.138 508.666 303.138L505.435 289.604L523.392 284.124L525.009 290.597Z" fill="#353333"/>
<path d="M474.262 299.62V319.65L439.686 320.733C439.686 320.733 439.686 316.221 442.269 313.696C444.853 311.169 455.488 308.027 455.488 308.027L456.974 298.356L474.262 299.62Z" fill="#353333"/>
<path d="M450.76 125.327C450.76 125.327 449.302 141.563 448.004 204.956C447.506 229.313 447.07 300.444 447.07 300.444L479.964 300.115C479.964 300.115 479.512 220.754 483.563 186.046C487.613 151.337 491.842 124.747 491.842 124.747L450.76 125.327Z" fill="#4359A8"/>
<path d="M502.178 130.498C502.178 130.498 512.382 191.279 514.256 204.418C516.131 217.557 526.409 288.506 528.277 293.236L498.41 299.066C498.41 299.066 483.726 240.324 476.628 188.335L473.211 163.706L471.108 124.974L502.178 130.498Z" fill="#4359A8"/>
<path d="M454.757 91.7337C454.712 91.776 451.124 108.931 452.138 136.216L505.435 133.69C502.22 94.1939 500.535 83.7602 481.968 71.7793L464.329 73.53L454.757 91.7337Z" fill="#629B94"/>
<path d="M465.322 132.877C465.322 132.877 457.647 133.239 455.028 132.877C452.409 132.516 451.597 134.953 452.138 136.216C452.68 137.479 456.133 138.111 458.651 138.201C461.168 138.292 466.857 137.66 466.857 137.66L465.322 132.877Z" fill="#FFF1DB"/>
<path d="M451.56 111.197L464.578 153.162C465.271 155.398 463.649 157.682 461.307 157.764L437.95 158.588C436.356 158.645 434.919 157.633 434.436 156.114L420.832 113.325C420.104 111.034 421.815 108.697 424.221 108.697H448.165C449.722 108.696 451.099 109.71 451.56 111.197Z" fill="#353333"/>
<path d="M480.944 71.5225C480.944 71.5225 464.329 68.4098 455.299 69.6726C446.27 70.9354 421.166 77.8383 414.665 77.116C408.164 76.3936 391.368 62.8602 389.201 61.2354L375.114 77.1996C375.114 77.1996 397.147 98.9513 414.123 99.4926C431.1 100.034 462.916 92.5449 462.916 92.5449L480.944 71.5225Z" fill="#629B94"/>
<path d="M466.702 135.729C464.78 134.743 462.406 135.365 460.405 135.723C456.96 136.338 453.501 136.859 450.041 137.388C449.244 137.51 448.418 137.643 447.745 138.087C447.072 138.532 446.595 139.382 446.84 140.15C447.144 141.104 448.307 141.438 449.302 141.564C451.978 141.903 454.712 141.784 457.349 141.214C456.064 141.453 454.708 141.946 452.074 142.39C450.107 142.721 446.667 142.679 446.541 144.669C446.355 147.605 451.902 147.268 454.844 147.181C453.424 147.419 452.005 147.657 450.586 147.896C450.029 147.99 449.393 148.138 449.135 148.64C448.646 149.591 449.142 150.829 450.186 151.066C451.896 151.453 454.453 151.272 456.206 151.299C455.797 151.327 455.388 151.354 454.979 151.382C454.359 151.423 452.535 151.487 452.102 151.932C451.364 152.692 452.039 153.955 452.986 154.431C453.933 154.907 456.058 154.695 457.118 154.714C463.426 154.824 467.2 153.095 472.242 152.285C473.981 152.007 469.163 136.991 466.702 135.729Z" fill="#FFF1DB"/>
<path d="M478.393 69.6724C478.393 69.6724 501.622 75.5822 507.582 84.2445C513.541 92.9067 514.8 99.401 515.523 110.77C516.245 122.139 512.188 131.975 506.227 138.472C500.267 144.969 478.235 150.743 468.844 153.991C468.844 153.991 465.444 136.127 462.916 132.697C462.916 132.697 484.014 128.006 492.502 119.524C496.118 115.911 496.836 106.351 495.391 99.8544C493.947 93.3584 473.042 76.508 473.042 76.508L478.393 69.6724Z" fill="#629B94"/>
<path d="M462.977 133.025L462.854 132.37C476.466 129.825 485.859 124.689 491.572 116.669C496.607 109.6 495.078 100.005 495.062 99.9098L495.72 99.8003C495.737 99.8986 497.308 109.765 492.115 117.056C486.297 125.222 476.766 130.446 462.977 133.025Z" fill="#353333"/>
<path d="M455.867 83.1692L453.582 94.4087L454.235 94.5414L456.52 83.3018L455.867 83.1692Z" fill="#353333"/>
<path d="M459.501 145.728L452.88 146.91L452.997 147.566L459.618 146.384L459.501 145.728Z" fill="#353333"/>
<path d="M460.704 150.746L452.941 151.125L452.974 151.791L460.737 151.412L460.704 150.746Z" fill="#353333"/>
<path d="M457.297 140.873L454.928 141.257L455.034 141.915L457.404 141.531L457.297 140.873Z" fill="#353333"/>
<path d="M471.428 169.899L470.776 170.037L481.27 219.797L481.922 219.66L471.428 169.899Z" fill="#353333"/>
<path d="M472.387 81.8152L470.862 74.1572L464.084 77.0854L465.628 69.605L466.281 69.7394L464.996 75.9657L471.356 73.2176L472.837 80.6601L485.306 71.5445L485.699 72.0824L472.387 81.8152Z" fill="#353333"/>
<path d="M462.495 125.864L461.829 125.816C463.795 98.8449 470.717 73.8478 470.787 73.5986L471.429 73.7779C471.36 74.0262 464.456 98.9621 462.495 125.864Z" fill="#353333"/>
<path d="M376.199 67.0856C376.032 67.0123 372.109 65.2866 370.556 64.1099C368.809 62.7868 368.891 61.6084 369.625 60.0197C370.394 58.3561 377.551 60.1542 379.726 60.7455L379.552 61.3886C375.336 60.2439 370.584 59.5318 370.231 60.299C369.584 61.6972 369.536 62.5032 370.958 63.5798C372.449 64.709 376.425 66.4589 376.466 66.4761L376.199 67.0856Z" fill="#353333"/>
<path d="M368.561 71.4206C368.064 71.4206 367.579 71.2439 367.234 70.8957L367.708 70.4267C368.114 70.8353 368.866 70.8655 369.383 70.4922C369.874 70.138 370.158 69.4596 370.107 68.7648C370.05 67.9769 369.62 67.3097 369.269 66.8891L367.383 64.6289L369.726 66.4107C370.23 66.7934 370.719 67.021 371.182 67.0865C371.71 67.1597 372.235 67.008 372.551 66.6865C372.876 66.3546 372.955 65.8055 372.725 65.4625L373.28 65.0918C373.688 65.7021 373.579 66.5882 373.027 67.152C372.561 67.6295 371.834 67.8528 371.089 67.7459C370.891 67.7175 370.69 67.6675 370.489 67.5951C370.649 67.9657 370.745 68.3424 370.772 68.7157C370.841 69.6501 370.458 70.5379 369.774 71.0319C369.414 71.2922 368.983 71.4206 368.561 71.4206Z" fill="#353333"/>
<path d="M472.021 130.431L471.378 130.608L476.762 150.178L477.406 150.001L472.021 130.431Z" fill="#353333"/>
<path d="M394.489 66.2339L382.387 83.0557L382.929 83.4451L395.031 66.6233L394.489 66.2339Z" fill="#353333"/>
<path d="M484.232 53.4746C484.907 55.4633 484.989 57.6234 484.667 59.6983C484.386 61.5016 483.789 63.2876 482.686 64.741C481.583 66.1952 479.932 67.2882 478.116 67.4709C477.464 67.5364 476.725 67.4494 476.303 66.9494C476.01 66.602 475.932 66.1271 475.865 65.6771C475.688 64.4918 475.51 63.3075 475.334 62.1222C474.937 59.469 474.543 56.7313 475.208 54.1315C475.771 51.9325 477.256 49.8585 479.419 49.0215C481.807 48.0975 483.582 51.5584 484.232 53.4746Z" fill="#353333"/>
<path d="M480.609 62.7584C480.02 62.0791 479.027 62.1231 478.109 62.3351C478.61 60.7085 478.994 59.032 479.231 57.4648C479.706 52.5032 474.662 48.5742 469.465 48.5664C465.313 49.0509 462.543 55.9227 462.188 59.5388C461.278 68.8122 466.51 74.7307 474.517 69.5837C475.29 68.6924 476 67.5183 476.628 66.1934C476.684 66.1934 476.739 66.196 476.793 66.1952C477.878 66.1796 479.029 66.1443 479.936 65.5478C480.84 64.953 481.319 63.5781 480.609 62.7584Z" fill="#FFF1DB"/>
<path d="M476.895 63.1514L479.261 70.7999C479.261 70.7999 474.262 73.5083 470.673 73.5083L468.962 69.3483L476.895 63.1514Z" fill="#FFF1DB"/>
<path d="M470.085 46.9638C470.054 46.9638 470.024 46.9638 469.993 46.9638C468.585 46.9638 467.241 47.1621 466.003 47.831C465.143 48.2956 464.235 48.8068 463.776 49.6705C463.029 51.0808 463.852 52.9272 465.195 53.79C466.539 54.6529 468.229 54.7494 469.824 54.6727C471.419 54.596 473.035 54.3727 474.6 54.6908C474.317 55.6244 474.771 56.6243 475.353 57.407C475.936 58.1897 476.666 58.881 477.064 59.7706C477.463 60.661 477.413 61.8661 476.619 62.4333C478.686 62.2842 480.077 60.2843 480.957 58.4095C481.732 56.7605 482.37 54.9744 482.222 53.159C482.004 50.4963 480.033 48.1655 477.583 47.094C475.134 46.0225 472.759 46.9638 470.085 46.9638Z" fill="#353333"/>
<path d="M113.926 53.2213V38.0527H98.4044V53.2213H90.2841V68.7322H105.625H105.807H121.148V53.2213H113.926Z" fill="#E8B158"/>
<path d="M113.927 52.8887H98.4044V53.555H113.927V52.8887Z" fill="#353333"/>
<path d="M106.499 53.2212H105.832V68.732H106.499V53.2212Z" fill="#353333"/>
<path d="M292.471 175.183V160.014H276.948V175.183H268.828V190.694H284.168H284.35H299.691V175.183H292.471Z" fill="#E8B158"/>
<path d="M292.471 174.85H276.948V175.516H292.471V174.85Z" fill="#353333"/>
<path d="M285.042 175.183H284.375V190.693H285.042V175.183Z" fill="#353333"/>
<path d="M168.484 223.037V207.868H152.961V223.037H144.841V238.548H160.182H160.364H175.705V223.037H168.484Z" fill="#E8B158"/>
<path d="M168.484 222.703H152.961V223.369H168.484V222.703Z" fill="#353333"/>
<path d="M161.056 223.037H160.389V238.547H161.056V223.037Z" fill="#353333"/>
<path d="M292.346 207.856C286.29 207.856 281.38 212.762 281.38 218.814C281.38 220.227 281.65 221.575 282.138 222.815L292.346 240.181L302.555 222.815C303.043 221.575 303.313 220.226 303.313 218.814C303.314 212.763 298.403 207.856 292.346 207.856ZM292.346 226.34C287.88 226.34 284.259 222.722 284.259 218.259C284.259 213.796 287.88 210.178 292.346 210.178C296.813 210.178 300.434 213.796 300.434 218.259C300.434 222.722 296.813 226.34 292.346 226.34Z" fill="#C44949"/>
<path d="M303.314 72.1108C297.257 72.1108 292.347 77.0173 292.347 83.0686C292.347 84.4814 292.617 85.8296 293.105 87.0691L303.314 104.435L313.522 87.0691C314.01 85.8296 314.28 84.4805 314.28 83.0686C314.28 77.0173 309.37 72.1108 303.314 72.1108ZM303.314 90.5947C298.847 90.5947 295.226 86.9769 295.226 82.5134C295.226 78.05 298.847 74.4322 303.314 74.4322C307.781 74.4322 311.401 78.05 311.401 82.5134C311.401 86.9769 307.78 90.5947 303.314 90.5947Z" fill="#C44949"/>
<path d="M419.437 31.5093C413.38 31.5093 408.471 36.4149 408.471 42.467C408.471 43.8798 408.741 45.228 409.228 46.4676L419.437 63.8334L429.646 46.4676C430.133 45.228 430.403 43.879 430.403 42.467C430.403 36.4158 425.493 31.5093 419.437 31.5093ZM419.437 49.9932C414.97 49.9932 411.35 46.3753 411.35 41.9119C411.35 37.4485 414.97 33.8306 419.437 33.8306C423.904 33.8306 427.525 37.4485 427.525 41.9119C427.524 46.3753 423.903 49.9932 419.437 49.9932Z" fill="#C44949"/>
<path d="M406.11 158.42V143.251H390.588V158.42H382.468V173.93H397.808H397.99H413.331V158.42H406.11Z" fill="#E8B158"/>
<path d="M406.111 158.086H390.588V158.752H406.111V158.086Z" fill="#353333"/>
<path d="M398.682 158.419H398.015V173.93H398.682V158.419Z" fill="#353333"/>
<path d="M144.896 163.853C145.923 163.782 146.966 162.892 146.811 161.863C146.743 161.41 145.878 159.705 145.595 159.347C144.086 157.438 138.838 154.587 137.767 153.223C140.07 153.368 140.987 153.426 143.292 153.571C143.656 153.594 144.033 153.615 144.374 153.484C145.102 153.207 145.438 152.288 145.274 151.519C145.111 150.749 144.565 150.12 143.967 149.617C141.131 147.225 136.432 146.979 132.604 145.398C128.813 143.833 126.803 143.187 123.384 140.997C123.298 140.943 123.205 140.886 123.105 140.895C122.983 140.905 122.891 141.006 122.812 141.101C120.302 144.089 117.792 147.077 115.282 150.065C114.629 150.842 113.953 151.64 113.06 152.116C115.595 155.078 132.72 169.64 135.826 170.617C137.348 171.095 139.025 171.051 140.52 170.493C141.199 170.24 141.932 169.736 141.914 169.004C141.903 168.548 141.592 168.159 141.262 167.85C140.952 167.561 140.616 167.311 140.26 167.089C140.422 167.148 140.584 167.21 140.746 167.268C141.627 167.585 142.55 167.891 143.479 167.785C144.408 167.679 145.346 167.041 145.498 166.107C145.653 165.166 145.037 164.404 144.231 163.819C144.45 163.852 144.672 163.868 144.896 163.853Z" fill="#FFE6BB"/>
<path d="M36.4529 291.927L35.7826 302.8C35.7826 302.8 42.7469 305.28 45.5885 307.188C48.4301 309.096 50.2357 313.864 50.3383 314.818H11.8884L15.5781 290.211L36.4529 291.927Z" fill="#353333"/>
<path d="M69.857 289.039V310.552H105.959C105.959 310.552 104.922 306.529 103.021 304.605C101.119 302.681 89.5388 298.484 89.5388 298.484L88.4156 286.765L69.857 289.039Z" fill="#353333"/>
<path d="M85.2772 134.861C85.2772 134.861 90.8914 173.096 92.8065 215.847C94.7225 258.598 94.4249 289.307 94.4249 289.307L67.0637 291.415L59.292 180.087L40.579 292.619H11.7219L30.7618 134.861H85.2772Z" fill="#896CB7"/>
<path d="M50.0286 188.367C50.2805 189.883 49.8035 191.478 48.9339 192.694C48.0643 193.91 46.8342 194.775 45.5272 195.367C44.9915 195.61 44.3057 195.783 43.8873 195.345C43.682 195.13 43.5974 194.818 43.5224 194.518C42.8072 191.681 42.206 188.803 41.8799 185.882C41.697 184.247 41.6056 182.552 42.0705 180.985C42.4751 179.62 44.5309 176.6 46.1924 177.779C47.2077 178.502 49.75 186.688 50.0286 188.367Z" fill="#FFE6BB"/>
<path d="M36.4037 186.564C28.4645 186.564 22.0256 193.077 22.0256 201.115C22.0256 201.342 22.0299 201.575 22.0411 201.798H27.1093C27.0903 201.574 27.0826 201.346 27.0826 201.115C27.0826 195.903 31.2579 191.677 36.4037 191.677C41.5538 191.677 45.7291 195.903 45.7291 201.115C45.7291 201.346 45.7213 201.575 45.7015 201.798H50.7697C50.7817 201.574 50.7852 201.342 50.7852 201.115C50.786 193.076 44.3462 186.564 36.4037 186.564Z" fill="#3D4193"/>
<path d="M65.4385 201.797H10.5625C7.47846 201.797 4.97845 204.295 4.97845 207.377V245.291C4.97845 248.373 7.47846 250.871 10.5625 250.871H65.4385C68.5225 250.871 71.0225 248.373 71.0225 245.291V207.377C71.0225 204.295 68.5225 201.797 65.4385 201.797Z" fill="#3D4193"/>
<path d="M61.7747 235.298H13.8786C11.6037 235.298 9.75244 233.596 9.75244 231.504V201.798H10.4193V231.504C10.4193 233.229 11.9712 234.632 13.8786 234.632H61.7756C63.6838 234.632 65.2357 233.229 65.2357 231.504V201.798H65.9025V231.504C65.9017 233.596 64.0504 235.298 61.7747 235.298Z" fill="#353333"/>
<path d="M33.6819 235.06H33.0151V238.202H33.6819V235.06Z" fill="#353333"/>
<path d="M37.8271 245.766C35.3167 245.766 33.2566 243.862 33.0349 241.337L33.6992 241.279C33.8907 243.457 35.6652 245.1 37.8271 245.1C39.9993 245.1 41.8152 243.383 41.9618 241.19L42.6269 241.234C42.457 243.775 40.3486 245.766 37.8271 245.766Z" fill="#353333"/>
<path d="M42.6382 235.06H41.9713V238.277H42.6382V235.06Z" fill="#353333"/>
<path d="M45.7463 241.545H29.6844V237.868H45.7463V241.545ZM30.3512 240.879H45.0795V238.534H30.3512V240.879Z" fill="#353333"/>
<path d="M44.3428 191.882C44.5188 193.526 44.8949 196.202 44.0495 197.502C43.4275 198.459 41.2458 199.414 40.3003 199.013C39.3549 198.612 39.0892 198.484 38.5543 199.363C38.4491 199.537 38.2946 199.657 38.1376 199.758C37.074 200.444 35.7196 200.402 34.6844 199.653C33.65 198.904 33.9623 199.049 33.1506 200.171C31.8876 201.918 28.506 201.072 27.2413 199.003C26.6038 197.96 26.5141 196.579 26.4709 195.279C26.3018 190.12 25.0234 183.55 25.604 178.435C30.3935 177.178 36.7151 177.578 41.5779 176.853C44.5731 176.405 43.1963 179.845 43.104 182.138C42.9548 185.844 43.9486 188.203 44.3428 191.882Z" fill="#FFE6BB"/>
<path d="M52.3449 74.6479C52.3449 74.6479 37.9013 74.347 28.6794 84.8841C19.4575 95.4212 15.7627 119.807 15.8248 135.463C15.8869 151.118 23.1954 184.168 23.1954 184.168L47.8056 178.983C47.8056 178.983 39.687 136.366 41.4718 123.421C43.2567 110.475 48.3318 101.141 48.3318 101.141L52.3449 74.6479Z" fill="#E2E8E8"/>
<path d="M57.2371 74.647C57.2371 74.647 66.7583 74.6478 71.8161 76.7554C76.8739 78.863 81.3538 80.0672 91.0044 93.3136C100.655 106.561 102.308 115.893 109.003 122.667C115.698 129.442 133.172 144.514 133.172 144.514L116.217 160.499C116.217 160.499 104.896 151.433 95.7638 142.387C85.278 132 75.6835 117.573 75.6835 117.573L57.2371 74.647Z" fill="#E2E8E8"/>
<path d="M79.8476 94.8196C82.8669 105.902 85.2772 134.861 85.2772 134.861L36.414 139.98L44.8923 79.02L52.3449 74.6488L57.2371 74.6479C57.2371 74.6479 77.8445 87.4676 79.8476 94.8196Z" fill="#E2E8E8"/>
<path d="M49.725 52.6125C46.3675 55.1304 43.9227 59.7274 45.2684 63.8495C46.0552 66.2614 47.9522 68.0431 49.7733 69.7102C50.1934 70.0956 50.6144 70.48 51.0354 70.8653C51.1268 70.9489 51.2243 71.036 51.3425 71.0619C51.5021 71.0963 51.6617 71.0127 51.8031 70.9248C53.7925 69.6921 54.9519 67.3949 56.6358 65.7261C59.6991 62.691 66.6039 59.2094 63.9322 53.3228C61.3002 47.5232 53.852 49.5179 49.725 52.6125Z" fill="#353333"/>
<path d="M64.8242 55.5303C66.6954 57.7103 66.9524 61.6393 67.0551 64.3632C67.1336 66.4527 66.7048 68.612 65.4108 70.3688C64.116 72.1264 62.2449 73.4151 59.8553 73.3703C57.3233 73.3229 55.058 71.8126 53.7148 69.9343C52.3716 68.056 51.8006 65.8442 51.3278 63.6676C50.8551 61.4928 50.4643 59.2111 51.2088 57.094C53.3939 50.879 61.3408 51.4712 64.8242 55.5303Z" fill="#FFE6BB"/>
<path d="M60.3125 69.981V76.3124C60.3125 76.3124 55.5687 77.4847 49.2229 75.1332L51.0354 62.1963L60.3125 69.981Z" fill="#FFE6BB"/>
<path d="M52.3233 64.4122L52.1051 64.2847C51.8489 63.3933 50.8033 62.8589 49.9148 63.0899C49.0262 63.3209 48.3809 64.2157 48.3344 65.1423C48.2878 66.0699 48.7873 66.9801 49.5317 67.5223C50.2762 68.0645 51.2355 68.2593 52.1482 68.1637C52.3225 66.9224 52.3811 65.6647 52.3233 64.4122Z" fill="#FFE6BB"/>
<path d="M53.2956 58.8008C55.4936 60.1343 58.2973 59.5619 60.7542 58.8258C61.5953 58.5732 62.4502 58.2974 63.1541 57.7672C63.8581 57.2362 64.3938 56.3984 64.342 55.5114C64.8846 56.0243 65.3393 56.6337 65.6783 57.3017C65.7749 56.8613 65.6084 56.4078 65.4109 56.0036C64.0763 53.2684 61.1458 51.4557 58.1343 51.335C55.1227 51.2134 52.1284 52.7185 50.2667 55.1174C48.9796 56.7759 48.2248 59.1456 49.2324 60.9911C49.92 62.2505 51.1907 63.2504 52.062 64.3667C52.9712 63.0668 53.0048 60.4153 53.2956 58.8008Z" fill="#353333"/>
<path d="M41.4002 139.468C41.2406 138.319 37.5269 111.241 41.4218 101.627L42.0395 101.877C38.2118 111.328 42.0222 139.097 42.061 139.376L41.4002 139.468Z" fill="#353333"/>
<path d="M81.3291 99.954L80.6692 100.05L84.9455 129.456L85.6054 129.36L81.3291 99.954Z" fill="#353333"/>
<path d="M50.7662 87.289L44.2945 76.627L44.8647 76.2813L50.8188 86.0917L57.1085 77.5381L66.264 82.0145L62.4528 75.0823L63.0368 74.7607L67.8634 83.5385L57.3164 78.3811L50.7662 87.289Z" fill="#353333"/>
<path d="M66.1458 136.861C66.126 136.647 64.1143 115.38 63.0083 108.395C60.0209 89.5369 56.9231 78.1594 56.8911 78.0473L57.5347 77.8706C57.5658 77.9835 60.6739 89.3973 63.6665 108.291C64.7759 115.295 66.7894 136.584 66.8092 136.798L66.1458 136.861Z" fill="#353333"/>
<path d="M45.83 169.952L21.9453 175.025L22.0839 175.677L45.9686 170.604L45.83 169.952Z" fill="#353333"/>
<path d="M125.758 138.013L108.995 154.442L109.461 154.918L126.224 138.489L125.758 138.013Z" fill="#353333"/>
<path d="M62.565 162.177L58.9756 180.009L59.6293 180.14L63.2188 162.308L62.565 162.177Z" fill="#353333"/>
<path d="M76.2025 144.697L75.7417 145.178L87.7616 156.66L88.2224 156.179L76.2025 144.697Z" fill="#353333"/>
<path d="M53.575 145.481L43.7067 155.702L44.1867 156.165L54.0549 145.943L53.575 145.481Z" fill="#353333"/>
<path d="M67.0637 65.3649C67.0637 65.3649 68.5674 70.2585 67.2121 74.1263C66.522 76.0959 59.9648 77.4277 56.7919 75.4106C53.6191 73.3936 51.0897 61.0747 51.0897 61.0747C51.0897 61.0747 54.9605 67.7 55.7757 67.6406C59.2221 67.3889 61.0561 65.3907 63.337 65.2106C65.6179 65.0313 65.4928 65.2115 66.3365 65.3709C66.5668 65.4149 67.0637 65.3649 67.0637 65.3649Z" fill="#353333"/>
<path d="M64.9735 68.0991C64.9485 67.9991 62.068 68.5008 62.068 68.5008C62.068 68.5008 62.8159 69.4292 63.6838 69.4042C64.5516 69.3783 64.9735 68.0991 64.9735 68.0991Z" fill="#FFE6BB"/>
<path d="M132.787 161.983L132.431 162.546L140.085 167.377L140.442 166.813L132.787 161.983Z" fill="#353333"/>
<path d="M135.944 158.475L135.606 159.05L143.638 163.767L143.976 163.193L135.944 158.475Z" fill="#353333"/>
<path d="M335.102 122.848C336.839 120.169 343.102 116.202 343.102 116.202L343.76 93.8077L350.215 90.9312L355.483 109.25C361.846 106.424 367.606 104.912 367.606 104.912C367.606 104.912 373.023 103.826 373.616 104.577C374.286 105.427 370.053 109.424 370.053 109.424C370.053 109.424 365.64 113.42 359.796 117.203L372.278 131.617L366.341 135.45L347.207 123.772C347.207 123.772 340.45 126.745 337.256 126.821C334.717 126.883 333.31 125.612 335.102 122.848Z" fill="#F6FAFF" fill-opacity="0.95"/>
<path d="M367.52 106.591L368.97 98.2351L372.194 96.0913L373.617 104.579L367.52 106.591Z" fill="#F6FAFF" fill-opacity="0.95"/>
<path d="M368.579 108.545L376.376 111.893L379.935 110.365L373.596 104.541L368.579 108.545Z" fill="#F6FAFF" fill-opacity="0.95"/>
<path d="M354.74 125.692L351.596 127.395L353.3 130.537L356.444 128.835L354.74 125.692Z" fill="#F6FAFF" fill-opacity="0.95"/>
<path d="M359.648 128.932L356.503 130.635L358.207 133.777L361.352 132.074L359.648 128.932Z" fill="#F6FAFF" fill-opacity="0.95"/>
<path d="M343.846 99.7935L340.701 101.496L342.405 104.638L345.55 102.936L343.846 99.7935Z" fill="#F6FAFF" fill-opacity="0.95"/>
<path d="M343.479 105.809L340.335 107.512L342.039 110.654L345.183 108.951L343.479 105.809Z" fill="#F6FAFF" fill-opacity="0.95"/>
<path d="M343.286 116.48L342.918 115.925C342.992 115.876 350.452 110.934 355.358 108.943L355.609 109.56C350.766 111.526 343.361 116.43 343.286 116.48Z" fill="#353333"/>
<path d="M347.348 124.076L347.067 123.472C347.159 123.43 356.276 119.209 359.608 116.93L359.984 117.48C356.607 119.79 347.725 123.902 347.348 124.076Z" fill="#353333"/>
<path d="M352.591 126.69L352.239 127.256L360.806 132.579L361.158 132.013L352.591 126.69Z" fill="#353333"/>
<path d="M343.27 99.9335L342.974 109.976L343.641 109.996L343.936 99.9531L343.27 99.9335Z" fill="#353333"/>
<path d="M336.5 122.062C336.5 122.062 336.697 124.137 338.604 125.944L339.627 125.181C339.627 125.181 338.29 123.544 337.685 121.6L336.5 122.062Z" fill="#353333"/>
</svg>
