<?xml version="1.0" standalone="no"?>
<!DOCTYPE svg PUBLIC "-//W3C//DTD SVG 20010904//EN"
 "http://www.w3.org/TR/2001/REC-SVG-20010904/DTD/svg10.dtd">
<svg version="1.0" xmlns="http://www.w3.org/2000/svg"
 width="1024.000000pt" height="1024.000000pt" viewBox="0 0 1024.000000 1024.000000"
 preserveAspectRatio="xMidYMid meet">

<g transform="translate(0.000000,1024.000000) scale(0.100000,-0.100000)"
fill="#000000" stroke="none">
<path d="M5815 5865 c-150 -33 -292 -120 -372 -228 -65 -89 -62 -92 88 -92
l126 0 38 34 c123 108 306 101 386 -15 20 -30 37 -44 52 -43 32 0 188 71 200
90 16 25 1 63 -47 115 -112 125 -293 178 -471 139z"/>
<path d="M4661 5850 c-94 -25 -185 -76 -259 -145 -56 -52 -118 -145 -105 -159
3 -3 61 -6 128 -6 l121 0 54 40 c124 92 273 92 384 0 l48 -40 124 0 124 0 0
28 c0 54 -103 178 -191 231 -112 66 -293 88 -428 51z"/>
<path d="M1663 5850 c-35 -14 -35 -41 -3 -161 46 -175 30 -159 164 -159 85 0
115 3 119 13 3 8 -8 67 -24 133 -16 65 -31 128 -34 140 -2 11 -16 26 -30 32
-30 14 -160 15 -192 2z"/>
<path d="M2416 5838 c-13 -13 -100 -170 -193 -350 -92 -180 -171 -328 -174
-328 -5 0 -27 74 -70 241 -6 25 -16 39 -32 43 -12 3 -101 6 -198 6 -185 0
-215 -6 -207 -46 3 -17 13 -19 95 -22 l93 -3 24 -82 c14 -45 48 -167 76 -272
29 -104 59 -198 67 -207 13 -14 32 -18 97 -18 45 0 91 3 104 6 24 7 68 80 297
504 277 509 277 511 225 537 -14 7 -60 13 -102 13 -66 0 -80 -3 -102 -22z"/>
<path d="M3643 5850 c-31 -13 -39 -33 -52 -130 -12 -86 -118 -815 -125 -859
-2 -14 4 -31 15 -42 18 -18 39 -19 334 -19 l316 0 23 23 c18 18 24 38 29 97 9
114 17 110 -233 110 -114 0 -209 2 -211 5 -3 2 19 165 48 362 54 372 59 418
43 443 -11 18 -152 25 -187 10z"/>
<path d="M6522 5848 c-13 -7 -26 -26 -32 -47 -5 -20 -39 -243 -75 -495 -77
-541 -82 -496 56 -496 96 0 113 8 123 57 11 52 44 277 92 617 l48 339 -23 18
c-18 15 -39 19 -95 18 -39 0 -81 -5 -94 -11z"/>
<path d="M7775 5851 c-12 -5 -27 -16 -35 -26 -19 -22 -12 -40 130 -331 l117
-241 -28 -199 c-34 -238 -33 -219 -13 -238 11 -12 36 -16 99 -16 120 0 120 0
150 190 14 85 29 181 34 212 9 51 18 66 82 140 113 131 343 426 353 453 8 20
6 29 -7 43 -26 26 -203 20 -232 -8 -11 -11 -74 -89 -140 -174 -66 -86 -125
-156 -131 -156 -6 0 -48 77 -93 171 -58 119 -90 173 -105 178 -29 11 -156 12
-181 2z"/>
<path d="M2752 5833 c-23 -20 -25 -33 -156 -961 -4 -24 0 -38 15 -53 18 -18
35 -19 349 -19 229 0 337 4 355 12 27 12 38 43 49 131 5 39 2 51 -14 67 -19
19 -34 20 -249 20 -127 0 -232 3 -234 8 -5 9 18 170 25 178 3 3 98 6 212 7
243 2 240 1 253 107 5 36 7 72 5 82 -7 35 -54 41 -247 34 -128 -5 -185 -3
-190 4 -4 6 -2 49 5 96 l12 84 238 0 c233 0 239 1 264 23 22 18 27 34 32 94 5
52 3 77 -6 88 -11 13 -60 15 -355 15 -312 0 -345 -2 -363 -17z"/>
<path d="M6837 5832 c-11 -11 -19 -46 -23 -99 -9 -103 -8 -103 160 -103 124 0
126 0 126 -22 0 -13 -23 -190 -52 -395 -43 -311 -50 -374 -39 -387 20 -24 192
-23 214 2 11 12 32 128 74 407 l58 390 133 5 c124 5 135 7 152 28 22 27 38
147 23 171 -9 14 -59 16 -410 19 -374 2 -401 1 -416 -16z"/>
<path d="M5687 5481 l-6 -28 -448 -7 c-246 -3 -454 -7 -460 -8 -29 -3 -10 -18
25 -19 20 -1 84 -4 142 -8 l105 -6 0 -28 c0 -15 7 -32 15 -37 9 -6 142 -10
314 -10 l298 0 -6 -45 c-4 -27 -3 -45 2 -45 6 0 77 32 158 71 l149 71 -70 35
c-58 30 -201 93 -210 93 -1 0 -5 -13 -8 -29z"/>
<path d="M4036 5439 c-86 -9 -105 -13 -94 -24 3 -3 68 -8 146 -12 l141 -6 3
-31 3 -31 120 -3 c137 -3 145 1 145 75 l0 43 -187 -1 c-104 -1 -228 -6 -277
-10z"/>
<path d="M4237 5233 c-12 -11 -8 -53 8 -83 l16 -30 139 0 c90 0 140 4 140 10
0 6 -11 33 -25 60 l-25 50 -124 0 c-67 0 -126 -3 -129 -7z"/>
<path d="M4828 5233 c-125 -4 -167 -23 -50 -23 38 0 104 -3 146 -7 61 -5 76
-9 71 -20 -3 -8 -8 -26 -11 -39 l-6 -24 316 0 316 0 -6 28 c-4 15 -13 42 -20
60 l-13 32 -313 -2 c-172 -1 -366 -4 -430 -5z"/>
<path d="M6049 5114 c-28 -34 -101 -75 -161 -90 -54 -14 -74 -15 -146 -4 -88
13 -362 5 -362 -11 0 -4 25 -35 56 -68 65 -70 164 -125 259 -142 115 -22 268
1 376 56 50 26 137 94 160 127 19 26 19 31 6 51 -16 25 -133 97 -158 97 -9 0
-22 -7 -30 -16z"/>
<path d="M4407 5021 l-119 -6 30 -41 c94 -129 246 -193 432 -180 102 7 173 26
261 72 74 39 173 126 167 146 -4 10 -68 13 -329 14 -178 0 -377 -2 -442 -5z"/>
<path d="M2504 4651 c-117 -54 -139 -211 -40 -276 48 -32 169 -15 205 29 12
15 12 19 -2 33 -14 14 -19 14 -61 -7 -52 -25 -84 -22 -116 10 -37 37 -21 117
30 157 23 19 79 15 115 -7 31 -19 34 -19 50 -4 20 20 16 32 -17 57 -38 28
-113 32 -164 8z"/>
<path d="M2873 4648 c-28 -30 -133 -242 -133 -268 0 -33 46 -26 65 10 15 29
19 30 79 30 62 0 64 -1 75 -30 7 -23 16 -30 36 -30 14 0 28 7 31 15 6 15 -56
214 -83 268 -16 33 -42 35 -70 5z m41 -102 c3 -13 9 -31 12 -40 5 -13 -1 -16
-35 -16 l-41 0 20 40 c23 46 35 50 44 16z"/>
<path d="M3157 4658 c-15 -11 -22 -41 -34 -142 -8 -70 -12 -134 -9 -142 7 -17
42 -18 53 -1 4 6 10 30 13 52 8 59 31 57 80 -9 31 -41 49 -56 67 -56 37 0 38
25 2 70 l-33 40 33 28 c26 21 34 37 38 72 4 39 1 48 -22 70 -22 21 -38 25 -98
28 -50 2 -78 -1 -90 -10z m138 -83 c0 -35 -34 -56 -77 -48 -21 4 -28 11 -28
28 0 48 9 56 59 53 44 -3 46 -4 46 -33z"/>
<path d="M3534 4652 c-58 -28 -87 -73 -92 -144 -3 -43 0 -65 12 -83 57 -87
205 -87 262 0 9 14 17 42 18 63 l1 37 -66 3 c-50 2 -69 -1 -79 -13 -20 -24 5
-45 53 -45 l40 0 -23 -25 c-48 -51 -127 -39 -151 23 -14 37 4 95 38 121 30 25
90 28 119 6 25 -19 48 -19 64 1 11 13 9 19 -13 41 -35 36 -123 43 -183 15z"/>
<path d="M3926 4660 c-93 -28 -145 -157 -96 -237 29 -48 72 -66 142 -61 65 5
99 25 136 78 30 45 31 136 1 174 -40 51 -108 68 -183 46z m119 -76 c45 -49 23
-128 -43 -160 -46 -22 -90 -9 -115 34 -23 40 -16 80 23 122 38 41 99 43 135 4z"/>
<path d="M4476 4648 c-38 -59 -128 -259 -123 -272 10 -26 44 -18 63 13 31 52
132 54 156 3 15 -31 55 -42 64 -18 6 16 -55 214 -83 269 -17 34 -56 37 -77 5z
m52 -107 c16 -52 17 -51 -28 -51 l-40 0 22 45 c12 25 25 45 28 45 4 0 12 -17
18 -39z"/>
<path d="M4761 4656 c-14 -17 -46 -258 -37 -281 9 -25 49 -15 58 15 4 14 11
54 15 90 l8 65 63 -92 c62 -93 86 -110 110 -80 13 15 46 263 38 284 -9 21 -45
15 -56 -9 -5 -13 -12 -53 -15 -90 -4 -38 -10 -68 -15 -68 -4 0 -34 40 -66 90
-58 89 -80 104 -103 76z"/>
<path d="M5133 4658 c-15 -18 -46 -279 -34 -291 5 -5 47 -8 94 -6 67 3 92 8
113 25 90 66 105 181 34 249 -29 27 -38 30 -114 33 -60 3 -85 0 -93 -10z m164
-74 c22 -22 25 -32 20 -67 -8 -58 -52 -97 -108 -97 l-41 0 7 88 c4 48 9 90 12
95 2 4 22 7 44 7 30 0 47 -7 66 -26z"/>
<path d="M5708 4650 c-56 -30 -82 -73 -86 -147 -4 -62 -4 -64 36 -103 37 -37
43 -40 97 -40 89 0 168 48 130 80 -12 10 -25 8 -67 -10 -42 -17 -59 -19 -80
-11 -63 24 -75 107 -22 162 36 37 70 42 122 17 41 -19 45 -20 60 -4 16 16 15
19 -16 47 -27 24 -40 29 -85 29 -31 -1 -66 -9 -89 -20z"/>
<path d="M6048 4641 c-30 -19 -52 -44 -67 -73 -26 -55 -26 -80 -1 -134 26 -52
68 -74 143 -74 70 0 129 40 159 107 64 144 -95 262 -234 174z m157 -56 c46
-45 24 -129 -43 -161 -70 -33 -139 16 -129 91 12 84 116 127 172 70z"/>
<path d="M6401 4653 c-16 -30 -32 -199 -22 -226 23 -61 108 -85 186 -53 50 21
66 54 80 168 11 87 10 105 -1 118 -11 11 -19 12 -32 4 -12 -8 -20 -37 -30
-110 -14 -105 -26 -128 -74 -139 -19 -5 -32 -1 -47 14 -23 23 -25 45 -11 145
8 50 7 72 -1 82 -16 19 -36 17 -48 -3z"/>
<path d="M6771 4661 c-10 -7 -20 -52 -31 -144 -9 -74 -14 -140 -12 -146 5 -15
35 -14 50 1 7 7 12 24 12 38 0 34 21 63 40 55 8 -3 32 -29 54 -56 28 -37 44
-49 60 -47 31 4 31 33 0 74 -28 36 -28 37 -8 53 61 49 70 107 25 152 -27 27
-35 29 -103 29 -40 0 -80 -4 -87 -9z m147 -79 c5 -35 -15 -52 -64 -52 -43 0
-44 1 -44 33 0 44 6 48 60 45 38 -3 45 -6 48 -26z"/>
<path d="M7110 4660 c-10 -6 -19 -50 -30 -142 -9 -73 -15 -139 -12 -145 2 -7
12 -13 22 -13 30 0 37 21 55 159 14 111 14 135 3 142 -16 11 -20 11 -38 -1z"/>
<path d="M7288 4663 c-21 -5 -24 -15 -42 -158 -18 -149 -20 -146 107 -143 101
3 102 3 102 28 0 24 -3 25 -75 30 -41 3 -74 8 -72 13 1 4 2 16 2 27 0 17 7 20
49 20 53 0 84 19 75 45 -5 11 -22 15 -61 15 l-54 0 3 33 3 32 75 5 c63 4 75 8
78 24 2 10 -2 22 -10 27 -13 9 -149 10 -180 2z"/>
<path d="M7587 4655 c-16 -15 -30 -123 -31 -230 -1 -57 0 -60 24 -60 22 0 26
5 30 40 11 83 33 85 92 10 30 -38 50 -55 66 -55 36 0 37 26 2 70 l-32 40 36
34 c29 27 36 41 36 70 0 50 -13 72 -51 85 -48 16 -154 14 -172 -4z m153 -60
c15 -18 4 -52 -22 -66 -11 -6 -35 -8 -54 -4 -30 5 -34 9 -34 39 0 18 3 36 7
39 12 13 90 7 103 -8z"/>
</g>
</svg>
